<?xml version="1.0" standalone="no"?>
<!DOCTYPE svg PUBLIC "-//W3C//DTD SVG 20010904//EN"
 "http://www.w3.org/TR/2001/REC-SVG-20010904/DTD/svg10.dtd">
<svg version="1.0" xmlns="http://www.w3.org/2000/svg"
 width="186.000000pt" height="186.000000pt" viewBox="0 0 186.000000 186.000000"
 preserveAspectRatio="xMidYMid meet">
<metadata>
Created by potrace 1.14, written by Peter Selinger 2001-2017
</metadata>
<g transform="translate(0.000000,186.000000) scale(0.100000,-0.100000)"
fill="#000000" stroke="none">
<path d="M368 1340 c-15 -4 -68 -6 -117 -4 -87 3 -92 2 -115 -22 l-23 -26 1
-262 c2 -266 11 -336 42 -336 8 0 14 -6 14 -13 0 -8 15 -22 33 -31 28 -15 56
-17 232 -13 110 2 209 8 221 11 17 6 23 2 34 -23 21 -53 99 -60 141 -14 l25
29 185 0 c101 -1 201 3 222 8 32 7 37 6 37 -10 1 -23 37 -51 71 -55 36 -4 63
8 93 41 23 26 33 30 80 30 40 0 55 4 60 16 3 9 6 71 6 139 0 122 0 123 -35
180 -19 32 -37 67 -41 77 -3 10 -10 18 -15 18 -5 0 -9 6 -9 13 0 6 -14 30 -30
51 -17 22 -30 47 -30 57 0 21 -28 51 -41 44 -5 -4 -9 -1 -9 5 0 6 -4 8 -10 5
-5 -3 -10 -1 -10 4 0 7 -39 11 -110 11 -71 0 -110 4 -110 11 0 5 -15 23 -32
40 -32 29 -34 29 -150 29 -68 0 -119 -4 -123 -10 -4 -6 -7 -24 -7 -40 -1 -17
-6 -30 -12 -31 -6 0 -53 -1 -104 -2 -88 -2 -92 -1 -92 20 0 12 -12 30 -29 42
-25 18 -43 21 -123 20 -51 0 -105 -4 -120 -9z"/>
</g>
</svg>
